<?xml version="1.0" encoding="utf-8"?>
<!-- Generator: Adobe Illustrator 19.1.0, SVG Export Plug-In . SVG Version: 6.00 Build 0)  -->
<svg version="1.1" id="Capa_1" xmlns="http://www.w3.org/2000/svg" xmlns:xlink="http://www.w3.org/1999/xlink" x="0px" y="0px"
	 viewBox="-644.9 -249.6 1891.2 612" style="enable-background:new -644.9 -249.6 1891.2 612;" xml:space="preserve">
<g>
	<g>
		<path d="M-40.6-54.9c4.3,0,7.7-3.6,7.7-7.7v-40.2c0-4.3-3.3-7.7-7.7-7.7h-596.6c-4.3,0-7.7,3.6-7.7,7.7v40.2
			c0,4.3,3.3,7.7,7.7,7.7H-40.6L-40.6-54.9z"/>
		<path d="M-644.9,76.5c0,4.3,3.3,7.7,7.7,7.7h596.5c4.3,0,7.7-3.6,7.7-7.7V36.3c0-4.3-3.3-7.7-7.7-7.7h-596.5
			c-4.3,0-7.7,3.6-7.7,7.7V76.5z"/>
		<path d="M-644.9,215.6c0,4.3,3.3,7.7,7.7,7.7h596.5c4.3,0,7.7-3.6,7.7-7.7v-40.2c0-4.3-3.3-7.7-7.7-7.7h-596.5
			c-4.3,0-7.7,3.6-7.7,7.7V215.6z"/>
	</g>
</g>
<g>
	<path d="M194.7-113.3l89.6,282.8l90-282.8H426v336.6h-35.8v-280h-0.8l-88.8,280h-32.2l-88.8-280h-0.8v280H143v-336.6H194.7z"/>
	<path d="M685.1-113.3v37.7H526.7v107h147.7v37.7H526.7v116.4h159.6v37.7H488.9v-336.6H685.1z"/>
	<path d="M771.9-113.3l149.7,272.9h0.8v-272.9h35.8v336.6h-41.4L768.3-46.8h-0.8v270.1h-35.8v-336.6H771.9z"/>
	<path d="M1217.3,198.5c-19.4,21.5-47,32.3-82.8,32.3c-36.6,0-65.2-10.3-85.8-30.9c-20.6-20.6-30.8-53.3-30.8-98.3v-215h37.8v215
		c0,30.2,6.8,53,20.3,68.6c13.5,15.6,33,23.3,58.5,23.3c24.1,0,42.5-7.8,55.1-23.3c12.6-15.6,18.9-38.4,18.9-68.6v-215h37.8v215
		C1246.3,144.7,1236.7,177,1217.3,198.5z"/>
</g>
</svg>
