<?xml version="1.0" encoding="utf-8"?>
<!-- Generator: Adobe Illustrator 19.1.0, SVG Export Plug-In . SVG Version: 6.00 Build 0)  -->
<svg version="1.1" id="Calque_1" xmlns="http://www.w3.org/2000/svg" xmlns:xlink="http://www.w3.org/1999/xlink" x="0px" y="0px"
	 viewBox="0 0 582 110.8" style="enable-background:new 0 0 582 110.8;" xml:space="preserve">
<style type="text/css">
	.st0{stroke:#000000;stroke-width:2;stroke-linecap:round;stroke-linejoin:bevel;stroke-miterlimit:10;}
</style>
<g>
	<g>
		<path class="st0" d="M19.9,7.3L35,19.5c0.1,0.1,0.2,0.1,0.2,0.2c0.2,0.1,0.3,0.1,0.4,0.1L50.3,7.3h1.5v43.6h-1.5V9.7l-15,12.3
			L20,9.7h-0.1v41.3h-1.5V7.3H19.9z"/>
		<path class="st0" d="M64.9,50.8h-2l39.9-43.5h1.5v43.6H103V9.8L64.9,50.8z"/>
		<path class="st0" d="M119.9,7.2l26.2,12h0.4v-12h1.3v43.6h-1.3V21.1L120.5,9.3c-0.1,0-0.2,0-0.2-0.1c-0.1,0-0.2-0.1-0.2-0.1v41.6
			h-1.6V7.2H119.9z"/>
		<path class="st0" d="M179.5,50.9c-2.9-0.3-5.6-1.2-8-2.7c-2.5-1.5-4.5-3.4-6.2-5.8c-1.7-2.4-2.8-5-3.5-7.7c-0.6-2.7-0.8-5.4-0.5-8
			c0.3-2.7,1.1-5.2,2.3-7.7c1.2-2.5,2.9-4.7,5.1-6.6c2.1-1.9,4.5-3.2,7.2-3.9c2.7-0.8,5.4-1,8.1-0.6c2.7,0.3,5.3,1.2,7.8,2.6
			c2.4,1.4,4.5,3.2,6.1,5.6c0.2,0.2,0.5,0.6,0.8,1.2c0.3,0.5,0.5,0.8,0.6,0.9c0.2,0.4,0.5,0.9,0.8,1.5c0.3,0.6,0.5,1.2,0.6,1.7v0.1
			c-0.1,0.1-0.3,0.3-0.6,0.4c-0.3,0.1-0.5,0.2-0.7,0.1c-0.6-1.6-1.4-3.1-2.4-4.5c-1-1.4-2.1-2.6-3.4-3.7c-1.3-1.1-2.7-2-4.2-2.7
			c-1.5-0.7-3.1-1.3-4.9-1.6c-0.1,0-0.2,0-0.5-0.1c-0.2,0-0.4-0.1-0.5-0.1c-2.2-0.1-4.1,0-5.8,0.4c-1.7,0.3-3.5,1-5.3,2.1
			c-1.7,0.9-3.1,2-4.2,3.4c-1.2,1.4-2.2,2.9-3.1,4.5c-0.7,1.2-1.2,2.5-1.6,4c-0.4,1.5-0.6,2.9-0.7,4.2c-0.1,1.6,0,3.2,0.2,4.7
			c0.2,1.5,0.6,3,1.2,4.6c0.6,1.6,1.3,3.1,2.3,4.4c1,1.3,2.1,2.5,3.2,3.6c2,1.8,4.2,3.1,6.8,3.8c2.5,0.7,5,0.9,7.5,0.6
			c2.5-0.3,4.9-1.1,7.2-2.4s4.1-3,5.7-5.2c0.1-0.2,0.4-0.6,0.7-1.1c0.3-0.5,0.6-0.9,0.6-1c0.2-0.3,0.4-0.7,0.7-1.3
			c0.2-0.5,0.4-1,0.6-1.4v-0.2h-11.6v-1.3h13.3c0.1,0.9,0,1.7-0.4,2.6c-0.4,0.9-0.8,1.7-1.2,2.4c-1,1.8-2.2,3.3-3.6,4.7
			c-1.4,1.4-3,2.6-4.7,3.5c-1.7,1-3.6,1.6-5.5,2C183.5,51.1,181.5,51.2,179.5,50.9z"/>
		<path class="st0" d="M230.5,50.8c-1.6-0.3-3.2-0.8-4.8-1.6c-1.5-0.8-3-1.7-4.3-2.7c-1.3-1.1-2.6-2.3-3.6-3.6
			c-1.1-1.3-1.9-2.8-2.6-4.3c-1.3-2.9-2-5.8-2.1-8.5c-0.1-2.8,0.3-5.3,1.1-7.7c0.8-2.4,2-4.6,3.6-6.6c1.6-2,3.4-3.6,5.5-5
			c2.1-1.4,4.3-2.4,6.8-3c2.4-0.6,4.9-0.8,7.4-0.6c2.5,0.2,5,0.9,7.5,2.2c2.5,1.2,4.8,3,6.9,5.4c1.4,1.5,2.5,3.3,3.4,5.1
			c0.8,1.9,1.4,3.8,1.8,5.9c0.4,2.6,0.5,5.1,0,7.5c-0.4,2.4-1.2,4.6-2.3,6.6c-1.1,2-2.5,3.8-4.2,5.4c-1.7,1.6-3.6,2.9-5.7,3.9
			s-4.3,1.6-6.8,2C235.5,51.4,233.1,51.3,230.5,50.8z M231.6,49.5c1.9,0.3,3.8,0.4,5.8,0.2c1.9-0.2,3.8-0.7,5.6-1.4
			c1.8-0.7,3.4-1.7,4.9-2.8c1.5-1.2,2.8-2.6,3.9-4.2c1.5-2.1,2.6-4.4,3.1-6.7c0.6-2.4,0.8-4.7,0.6-7c-0.2-2.3-0.8-4.5-1.7-6.6
			c-1-2.1-2.2-4-3.8-5.7c-1.6-1.7-3.4-3.1-5.6-4.2c-2.2-1.1-4.5-1.8-7.2-2.1c-2.1-0.2-4.2-0.2-6.4,0.3c-2.1,0.4-4.1,1.2-5.9,2.3
			c-1.3,0.8-2.6,1.7-3.9,2.9s-2.3,2.4-3.2,3.8c-0.9,1.4-1.7,2.9-2.3,4.4c-0.6,1.6-0.9,3.2-0.9,4.8c-0.1,2.5,0.1,4.9,0.6,7.2
			c0.6,2.3,1.6,4.6,3.1,6.6c1.5,2.2,3.5,4,5.7,5.4C226.5,48,229,49,231.6,49.5z"/>
		<path class="st0" d="M287.2,50.8c-1.6-0.3-3.2-0.8-4.8-1.6c-1.5-0.8-3-1.7-4.3-2.7c-1.3-1.1-2.6-2.3-3.6-3.6
			c-1.1-1.3-1.9-2.8-2.6-4.3c-1.3-2.9-2-5.8-2.1-8.5c-0.1-2.8,0.3-5.3,1.1-7.7c0.8-2.4,2-4.6,3.6-6.6c1.6-2,3.4-3.6,5.5-5
			c2.1-1.4,4.3-2.4,6.8-3c2.4-0.6,4.9-0.8,7.4-0.6c2.5,0.2,5,0.9,7.5,2.2c2.5,1.2,4.8,3,6.9,5.4c1.4,1.5,2.5,3.3,3.4,5.1
			c0.8,1.9,1.4,3.8,1.8,5.9c0.4,2.6,0.5,5.1,0,7.5c-0.4,2.4-1.2,4.6-2.3,6.6c-1.1,2-2.5,3.8-4.2,5.4s-3.6,2.9-5.7,3.9
			c-2.1,1-4.4,1.6-6.8,2C292.2,51.4,289.7,51.3,287.2,50.8z M288.3,49.5c1.9,0.3,3.8,0.4,5.8,0.2c1.9-0.2,3.8-0.7,5.6-1.4
			c1.8-0.7,3.4-1.7,4.9-2.8c1.5-1.2,2.8-2.6,3.9-4.2c1.5-2.1,2.6-4.4,3.1-6.7c0.6-2.4,0.8-4.7,0.6-7c-0.2-2.3-0.8-4.5-1.7-6.6
			c-1-2.1-2.2-4-3.8-5.7c-1.6-1.7-3.4-3.1-5.6-4.2c-2.2-1.1-4.5-1.8-7.2-2.1c-2.1-0.2-4.2-0.2-6.4,0.3c-2.1,0.4-4.1,1.2-5.9,2.3
			c-1.3,0.8-2.6,1.7-3.9,2.9s-2.3,2.4-3.2,3.8c-0.9,1.4-1.7,2.9-2.3,4.4c-0.6,1.6-0.9,3.2-0.9,4.8c-0.1,2.5,0.1,4.9,0.6,7.2
			c0.5,2.3,1.6,4.6,3.1,6.6c1.5,2.2,3.5,4,5.7,5.4C283.1,48,285.6,49,288.3,49.5z"/>
		<path class="st0" d="M371.8,7.6c1.5,0,3.1,0.3,4.5,0.8c1.5,0.6,2.8,1.3,4,2.1c1.8,1.2,3.2,2.6,4.2,4.2c1.1,1.6,1.8,3.3,2.2,5.1
			c0.4,1.8,0.5,3.6,0.4,5.5c-0.2,1.9-0.7,3.6-1.4,5.3c-0.8,1.7-1.8,3.2-3.1,4.6c-1.3,1.4-2.9,2.5-4.8,3.4c-1,0.5-2.1,0.9-3.3,1.2
			c-1.2,0.3-2.4,0.4-3.5,0.3v-1.5c3.1-0.2,5.7-1.1,8-2.6c2.3-1.5,4.1-3.7,5.5-6.5c0.6-1.1,0.9-2.3,1-3.6c0.1-1.2,0.1-2.5,0.1-3.8
			c-0.1-1.5-0.5-3-1.3-4.6c-0.8-1.5-1.8-3-3.1-4.2c-1.2-1.3-2.6-2.3-4.2-3.1c-1.5-0.8-3.1-1.2-4.6-1.2h-13v41.6h-1.6V7.6H371.8z"/>
		<path class="st0" d="M400.8,7.2v43.6h-1.5V7.2H400.8z"/>
		<path class="st0" d="M432.5,50.9c-2.6-0.2-5-1-7.2-2.2c-2.2-1.2-4.2-2.8-5.9-4.7c-0.9-1-1.7-2.1-2.4-3.4c-0.7-1.2-1.3-2.5-1.7-3.8
			c-0.9-2.4-1.3-4.9-1.3-7.4c0-2.5,0.4-4.9,1.2-7.2c0.8-2.3,1.9-4.4,3.3-6.4c1.4-2,3.1-3.6,5.1-4.9c2-1.3,4.1-2.3,6.5-2.8
			c2.4-0.6,4.9-0.7,7.6-0.2c3.2,0.5,6.1,1.7,8.6,3.7c2.6,2,4.6,4.4,6.1,7.2c0.1,0.1,0.2,0.4,0.4,0.9c0.2,0.4,0.3,0.8,0.4,1
			c0,0.1,0,0.2,0.1,0.4c0.1,0.2,0.1,0.3,0.1,0.4c-0.2,0.1-0.4,0.2-0.7,0.4c-0.2,0.2-0.5,0.2-0.7,0.1c-0.7-1.5-1.4-3-2.2-4.2
			c-0.8-1.3-1.9-2.5-3.1-3.7c-2.3-2.1-4.9-3.5-7.9-4.2c-3-0.7-6-0.7-9,0c-2.4,0.6-4.7,1.7-6.8,3.4c-2.1,1.6-3.7,3.5-4.9,5.7
			c-1.3,2.3-2.1,4.6-2.5,7.1c-0.4,2.4-0.4,4.8,0.1,7.2c0.4,2.3,1.2,4.5,2.4,6.6c1.1,2.1,2.6,3.8,4.3,5.3c1.8,1.5,3.8,2.7,6.1,3.5
			c2.3,0.8,4.8,1.2,7.5,1c1.8-0.1,3.6-0.5,5.3-1.2c1.7-0.7,3.3-1.7,4.7-2.9c1.4-1.2,2.7-2.6,3.8-4.1c1.1-1.5,1.9-3.2,2.4-4.9
			l1.3,0.5v0.1c-0.3,1-0.7,1.9-1.2,2.8c-0.5,0.9-1,1.8-1.6,2.7c-1.1,1.5-2.3,2.8-3.7,4c-1.4,1.1-2.9,2.1-4.5,2.8
			c-1.6,0.7-3.3,1.2-5,1.5C436,51,434.2,51.1,432.5,50.9z"/>
		<path class="st0" d="M468,7.3v43.5h-1.3V7.3H468z M472.8,28.2c-0.1-0.1-0.2-0.2-0.1-0.3c0-0.1,0.1-0.2,0.2-0.2l17.7-20.4h2.1
			l-17.7,20.5c0,0-0.1,0.1-0.1,0.1c0,0-0.1,0.1-0.1,0.2c0,0.1-0.1,0.1-0.1,0.2c0,0,0,0.1,0.1,0.1c0,0,0.1,0.1,0.1,0.1
			c0,0,0.1,0.1,0.1,0.1l16.7,22.2h-2L472.8,28.2z"/>
		<path class="st0" d="M507.5,7.3v42h18.4v1.5h-20V7.3H507.5z"/>
		<path class="st0" d="M563.2,7.3v1.3h-25.6v16.8h10.6v1.6h-10.6v22.3h24.8v1.5h-26.3V7.3H563.2z"/>
	</g>
	<g>
		<path d="M28.7,87.3c-0.4,0.3-1.3,0.7-2.6,1c-1.3,0.4-2.3,0.6-3,0.6c-1.1,0-2.2-0.3-3.1-1c-0.9-0.7-1.3-1.6-1.3-2.7
			c0-1,0.6-2,1.7-3c1.1-1,2.2-1.4,3.2-1.4c0.6,0,1.1,0.2,1.6,0.5c0.5,0.4,0.8,0.7,0.8,1.2c0,0.2-0.1,0.5-0.3,0.9
			c-0.3,0.5-0.7,0.8-1.1,0.8c-0.5,0-0.8-0.3-0.8-0.8c0.1-0.2,0.3-0.5,0.5-1.1c-0.3-0.3-0.7-0.4-1.1-0.4c-0.8,0-1.5,0.4-2.1,1.1
			c-0.6,0.7-1,1.4-1,2c0,0.8,0.4,1.5,1.1,2c0.6,0.4,1.1,0.7,1.5,0.7h1.9c1,0,1.8-0.2,2.6-0.6c0.5-0.3,1-0.5,1.5-0.8V87.3z"/>
		<path d="M44.4,86.7c-1.4,1-2.9,1.4-4.3,1.4c-1.4,0-2.2-1-2.3-2.9c-0.4,0-1.3,0.5-2.5,1.6c-1.3,1.1-2.3,1.6-3,1.6
			c-0.9,0-1.4-0.3-1.7-1c0-0.1-0.1-0.6-0.3-1.6c-0.5,0.1-0.8,0.2-0.9,0.3c-0.2,0.2-0.4,0.4-0.8,0.5c-0.1-0.3-0.1-0.5-0.1-0.5l0.1,0
			l4.5-5.4h0.5c0,0.4-0.4,1.1-1,2.2c-0.7,1.1-1,2-1,2.7c0,0.7,0.3,1.1,1,1.1c1.1,0,2.2-0.5,3.4-1.6c0.5-0.4,1.4-1.5,2.7-3.1
			c0.9-1.1,1.6-1.6,2-1.6h0.5c0,0.2-0.5,1-1.3,2.3c-0.9,1.3-1.3,2.2-1.3,2.5c0,0.4,0.2,0.7,0.6,1.1s0.9,0.6,1.6,0.6
			c1.3,0,2.3-0.2,2.8-0.6h0.6V86.7z"/>
		<path d="M55.5,86.8c-0.3,0.4-1,0.8-2.2,1.3c-1.2,0.5-2.1,0.7-2.9,0.7h-2.3c-0.8,0-1.5-0.3-2.2-1s-1.4-1-2-1c-0.2,0-0.3,0-0.5,0
			c0-0.7,0.1-1.1,0.3-1.2s0.3-0.3,0.3-0.6v-2.6c0-2.2,0.3-4.1,0.9-5.6c0.7-1.4,1.3-2.9,2-4.3c0.7-1.8,1.7-3.5,2.9-5.3
			c1.6-2.4,3-3.6,4.1-3.6c1,0,1.6,1,1.6,2.9c0,1.9-0.4,3.8-1.1,5.8c-0.2,0.5-0.8,1.8-1.7,3.7c-1.1,2.2-2.2,4-3.4,5.4
			c-0.5,0.6-1.3,1.3-2.4,2.3c-0.6,0.5-0.9,1-0.9,1.5c0,0.3,0.3,0.8,1,1.3c1,0.8,2.3,1.1,3.8,1.1c0.6-0.2,1.8-0.6,3.5-1.3h1V86.8z
			 M54.5,66.1c0-0.8-0.3-1.2-1-1.2c-0.7,0-1.7,1.1-3.1,3.3c-1.2,1.9-2,3.3-2.2,4.2c-0.4,1.1-0.9,2.3-1.3,3.4
			c-0.8,2.5-1.3,4.7-1.3,6.7c0-0.1,0-0.1-0.1,0.2c0,0.2,0,0.5,0.1,1c1.7-1.3,3.6-4,5.7-8.2C53.5,71.3,54.5,68.1,54.5,66.1z"/>
		<path d="M64.1,86.9c-0.4,0.3-1.1,0.7-2.3,1.2c-1.2,0.5-1.9,0.8-2.2,0.8h-1.7c-0.8,0-1.4-0.3-1.8-0.8c-0.4-0.5-0.7-1.1-1.1-1.6
			c-0.2,0.1-0.4,0.1-0.7,0v-0.7c0.4-0.3,0.7-1.2,1.1-2.8c0.4-1.8,0.9-2.9,1.2-3.5V79h-0.4c-0.3,0.1-0.9,0.2-2,0.5v-0.7
			c1.2-0.4,2.1-0.6,2.7-0.6c0.3-0.7,0.7-1.5,1-2.2c0.7-1.4,1.4-2.3,1.9-2.6V75c-0.1,0.5-0.2,1.2-0.4,2V78h2.2c1.4,0,2.1,0.2,2.1,0.6
			c0,0.3-0.2,0.4-0.6,0.4h-3.6c-0.4,0-1,1-2,2.9c-1,2-1.5,3.2-1.5,3.6c0,0.6,0.3,1.2,0.8,1.8c0.5,0.5,1.2,0.8,2.1,0.8
			c0.9,0,2.6-0.6,5.1-1.9V86.9z M57.9,79.3v-0.5c-0.3,0.3-0.5,0.8-0.8,1.6c-0.1,0.4-0.2,0.8-0.3,1.3C57,80.9,57.4,80.1,57.9,79.3z
			 M58.7,77.1v-0.5c-0.3,0.6-0.4,1.1-0.4,1.4C58.6,77.5,58.7,77.2,58.7,77.1z"/>
		<path d="M79.7,86.7c-1.4,1-2.9,1.4-4.3,1.4c-1.4,0-2.2-1-2.3-2.9c-0.4,0-1.3,0.5-2.5,1.6c-1.3,1.1-2.3,1.6-3,1.6
			c-0.9,0-1.4-0.3-1.7-1c0-0.1-0.1-0.6-0.3-1.6c-0.5,0.1-0.8,0.2-0.9,0.3c-0.2,0.2-0.4,0.4-0.8,0.5c-0.1-0.3-0.1-0.5-0.1-0.5l0.1,0
			l4.5-5.4h0.5c0,0.4-0.4,1.1-1,2.2c-0.7,1.1-1,2-1,2.7c0,0.7,0.3,1.1,1,1.1c1.1,0,2.2-0.5,3.4-1.6c0.5-0.4,1.4-1.5,2.7-3.1
			c0.9-1.1,1.6-1.6,2-1.6h0.5c0,0.2-0.5,1-1.3,2.3c-0.9,1.3-1.3,2.2-1.3,2.5c0,0.4,0.2,0.7,0.6,1.1s0.9,0.6,1.6,0.6
			c1.3,0,2.3-0.2,2.8-0.6h0.6V86.7z"/>
		<path d="M92.5,86.8c-0.6,0.6-1.5,1-2.7,1.5c-1.2,0.4-2.3,0.6-3.1,0.6c-0.6,0-1.1-0.2-1.7-0.5c-0.6-0.3-0.9-0.7-0.9-1.2V86
			c0-0.1,0.2-0.5,0.5-1.1c0.3-0.6,0.5-1,0.6-1h-3.4c-0.4,0-0.8,0.4-1.4,1.3c-0.6,1-1,1.6-1.3,1.7c-0.1,0-0.2-0.3-0.4-0.8l2.9-4.2
			c0.3,0.3,0.6,0.6,0.8,0.9c0.2,0.2,0.6,0.3,1.2,0.3c0.8,0,1.8-0.5,2.9-1.4H87v0.7c-1.1,1.7-1.6,2.9-1.6,3.6c0,0.5,0.2,0.9,0.5,1.2
			c0.3,0.4,0.6,0.5,0.9,0.5h2c0.3,0,0.7-0.1,1-0.2c0.8-0.2,1.6-0.6,2.2-1.2h0.5V86.8z"/>
		<path d="M112.2,86.7c0,0.3-0.4,0.7-1.2,1.1c-1,0.6-2.2,1-3.6,1h-1.3c-0.9,0-1.6-0.4-2.1-1.2c-0.2-0.4-0.4-1.1-0.7-2.3
			c-0.7,0.6-1.5,1.2-2.2,1.8c-1.5,1.2-2.9,1.8-4.4,1.8h-2c-0.4,0-1-0.4-1.7-1.2c-0.6-0.7-1-1.1-1-1.3c0.4-1.3,1-2.4,1.8-3.3
			c1.9-2.2,4.8-3.3,8.5-3.3h3v0.9c-0.6,1.3-0.8,2.4-0.8,3c0,1,0.3,1.8,0.9,2.4c0.6,0.6,1.3,1,2,0.9c0.3,0,0.9,0,1.8,0
			c0.6-0.1,1.4-0.4,2.6-0.9h0.4V86.7z M103.5,81.8v-0.5c-0.2,0.1-0.6,0.1-1.2,0.1c-0.9-0.1-1.5-0.1-1.8-0.1c-1.6,0.1-3.1,0.7-4.5,2
			c-1.1,1-1.7,1.7-1.7,2.1c0,0.4,0.2,0.9,0.6,1.3c0.4,0.4,0.8,0.6,1.1,0.6h1.5c1.5,0,2.9-0.8,4.1-2.5
			C102.2,83.9,102.8,82.9,103.5,81.8z"/>
		<path d="M123.6,86.8c-0.3,0.4-1,0.8-2.2,1.3c-1.2,0.5-2.1,0.7-2.9,0.7h-2.3c-0.8,0-1.5-0.3-2.2-1s-1.4-1-2-1c-0.2,0-0.3,0-0.5,0
			c0-0.7,0.1-1.1,0.3-1.2s0.3-0.3,0.3-0.6v-2.6c0-2.2,0.3-4.1,0.9-5.6c0.7-1.4,1.3-2.9,2-4.3c0.7-1.8,1.7-3.5,2.9-5.3
			c1.6-2.4,3-3.6,4.1-3.6c1,0,1.6,1,1.6,2.9c0,1.9-0.4,3.8-1.1,5.8c-0.2,0.5-0.8,1.8-1.7,3.7c-1.1,2.2-2.2,4-3.4,5.4
			c-0.5,0.6-1.3,1.3-2.4,2.3c-0.6,0.5-0.9,1-0.9,1.5c0,0.3,0.3,0.8,1,1.3c1,0.8,2.3,1.1,3.8,1.1c0.6-0.2,1.8-0.6,3.5-1.3h1V86.8z
			 M122.6,66.1c0-0.8-0.3-1.2-1-1.2c-0.7,0-1.7,1.1-3.1,3.3c-1.2,1.9-2,3.3-2.2,4.2c-0.4,1.1-0.9,2.3-1.3,3.4
			c-0.8,2.5-1.3,4.7-1.3,6.7c0-0.1,0-0.1-0.1,0.2c0,0.2,0,0.5,0.1,1c1.7-1.3,3.6-4,5.7-8.2C121.5,71.3,122.6,68.1,122.6,66.1z"/>
		<path d="M152.6,79.6c1-0.5,1.9-0.6,2.7-0.4c0.8,0.2,1.3,0.9,1.4,2s-0.1,2.3-0.8,3.6c-0.7,1.2-1.8,2.1-3.2,2.6
			c-1.5,0.5-2.3,1-2.7,1.6s-0.8,0.9-1.5,1.1c-0.9-0.1-1.6-0.4-2.1-1c-0.4-0.5-0.7-1.2-0.7-2.1c0-0.7,0.3-1.3,0.9-1.7
			s0.9-1.3,1.1-2.4c0.1-1.1,0.5-2.3,0.9-3.4c0.5-1.1,0.8-2.3,0.9-3.6c0.1-1.3,0.1-2.3-0.1-3c-0.2-0.7,0-1.4,0.5-2s1.2-0.9,1.9-0.9
			s1.2,0.4,1.5,1.3c0.3,0.8,1.2,1.6,2.7,2.4c1.5,0.8,3.6,1.3,6.3,1.5s5,0,6.9-0.7c1.8-0.6,2.7-1.1,2.5-1.4c-0.2-0.3-0.5-0.6-1.2-0.8
			c-0.6-0.2-1-0.6-1.1-1.1c-0.1-0.5,0-1,0.3-1.5c0.3-0.5,0.9-0.8,2-0.8c1.1,0.1,1.8,0.3,2.1,0.7c0.4,0.3,0.6,0.8,0.7,1.4
			s0.2,1.4,0.2,2.2c-0.1,0.7-0.5,1.4-1.3,2.2c-0.8,0.8-1.8,1.3-3.2,1.8c-1.4,0.4-3.1,0.7-5.1,0.8c-2,0.1-4,0-6-0.4s-4-1.2-6-2.7
			c-0.4,0.1-0.7,0.6-0.8,1.6S152.4,78.4,152.6,79.6z M154.3,82.9c0.4-0.4,0.5-0.8,0.3-1c-0.2-0.2-0.4-0.2-0.7,0.2
			c-0.3,0.3-0.6,0.6-1,0.8s-0.5,0.5-0.3,0.9C153.4,83.7,153.9,83.3,154.3,82.9z"/>
		<path d="M200.8,87.3c-0.4,0.3-1.3,0.7-2.6,1c-1.3,0.4-2.3,0.6-3,0.6c-1.1,0-2.2-0.3-3.1-1c-0.9-0.7-1.3-1.6-1.3-2.7
			c0-1,0.6-2,1.7-3c1.1-1,2.2-1.4,3.2-1.4c0.6,0,1.1,0.2,1.6,0.5c0.5,0.4,0.8,0.7,0.8,1.2c0,0.2-0.1,0.5-0.3,0.9
			c-0.3,0.5-0.7,0.8-1.1,0.8c-0.5,0-0.8-0.3-0.8-0.8c0.1-0.2,0.3-0.5,0.5-1.1c-0.3-0.3-0.7-0.4-1.1-0.4c-0.8,0-1.5,0.4-2.1,1.1
			c-0.6,0.7-1,1.4-1,2c0,0.8,0.4,1.5,1.1,2c0.6,0.4,1.1,0.7,1.5,0.7h1.9c1,0,1.8-0.2,2.6-0.6c0.5-0.3,1-0.5,1.5-0.8V87.3z"/>
		<path d="M214.2,86.8c-0.6,0.6-1.5,1-2.7,1.5c-1.2,0.4-2.3,0.6-3.1,0.6c-0.6,0-1.1-0.2-1.7-0.5c-0.6-0.3-0.9-0.7-0.9-1.2V86
			c0-0.1,0.2-0.5,0.5-1.1c0.3-0.6,0.5-1,0.6-1h-3.4c-0.4,0-0.8,0.4-1.4,1.3c-0.6,1-1,1.6-1.3,1.7c-0.1,0-0.2-0.3-0.4-0.8l2.9-4.2
			c0.3,0.3,0.6,0.6,0.8,0.9c0.2,0.2,0.6,0.3,1.2,0.3c0.8,0,1.8-0.5,2.9-1.4h0.4v0.7c-1.1,1.7-1.6,2.9-1.6,3.6c0,0.5,0.2,0.9,0.5,1.2
			c0.3,0.4,0.6,0.5,0.9,0.5h2c0.3,0,0.7-0.1,1-0.2c0.8-0.2,1.6-0.6,2.2-1.2h0.5V86.8z"/>
		<path d="M224.9,86.9c-0.3,0.3-1.2,0.7-2.6,1.2c-1.4,0.5-2.4,0.7-3,0.7h-2c-0.7,0-1.3-0.3-2-1c-0.6-0.7-1.3-1-1.9-1
			c0.2-0.8,0.3-1.3,0.3-1.7c0-0.2-0.1-0.4-0.2-0.5c-0.1-0.1-0.2-0.2-0.2-0.2c0-0.8,0.3-1.8,1-2.9c0.8-1.3,1.7-2,2.6-2
			c0.5,0,1,0.3,1.3,0.8c0.3,0.4,0.4,0.8,0.4,1.2c0,0.9-0.5,1.9-1.5,2.9c-1,1-1.5,1.6-1.5,1.6c0,0.6,1.1,1,3.3,1.3
			c0.9,0,1.9-0.2,3.1-0.5c1.4-0.4,2.3-0.7,2.6-0.7V86.9z M217.5,81.7c0-0.1-0.1-0.3-0.2-0.5c-0.1-0.2-0.2-0.3-0.3-0.3
			c-1,0-1.4,1-1.4,2.9c0,0,0,0.1-0.1,0.2c-0.1,0.1-0.1,0.2-0.1,0.4c0,0.2,0.2,0.4,0.5,0.6C216.9,83.3,217.5,82.2,217.5,81.7z"/>
		<path d="M245,86.7c0,0.3-0.4,0.7-1.2,1.1c-1,0.6-2.2,1-3.6,1h-1.3c-0.9,0-1.6-0.4-2.1-1.2c-0.2-0.4-0.4-1.1-0.7-2.3
			c-0.7,0.6-1.5,1.2-2.2,1.8c-1.5,1.2-2.9,1.8-4.4,1.8h-2c-0.4,0-1-0.4-1.7-1.2c-0.6-0.7-1-1.1-1-1.3c0.4-1.3,1-2.4,1.8-3.3
			c1.9-2.2,4.8-3.3,8.5-3.3h3v0.9c-0.6,1.3-0.8,2.4-0.8,3c0,1,0.3,1.8,0.9,2.4c0.6,0.6,1.3,1,2,0.9c0.3,0,0.9,0,1.8,0
			c0.6-0.1,1.4-0.4,2.6-0.9h0.4V86.7z M236.3,81.8v-0.5c-0.2,0.1-0.6,0.1-1.2,0.1c-0.9-0.1-1.5-0.1-1.8-0.1c-1.6,0.1-3.1,0.7-4.5,2
			c-1.1,1-1.7,1.7-1.7,2.1c0,0.4,0.2,0.9,0.6,1.3s0.8,0.6,1.1,0.6h1.5c1.5,0,2.9-0.8,4.1-2.5C235,83.9,235.6,82.9,236.3,81.8z"/>
		<path d="M254.2,86.9c-0.4,0.3-1.1,0.7-2.3,1.2c-1.2,0.5-1.9,0.8-2.2,0.8H248c-0.8,0-1.4-0.3-1.8-0.8c-0.4-0.5-0.7-1.1-1.1-1.6
			c-0.2,0.1-0.4,0.1-0.7,0v-0.7c0.4-0.3,0.7-1.2,1.1-2.8c0.4-1.8,0.9-2.9,1.2-3.5V79h-0.4c-0.3,0.1-0.9,0.2-2,0.5v-0.7
			c1.2-0.4,2.1-0.6,2.7-0.6c0.3-0.7,0.7-1.5,1.1-2.2c0.7-1.4,1.4-2.3,1.9-2.6V75c-0.1,0.5-0.2,1.2-0.4,2V78h2.2
			c1.4,0,2.1,0.2,2.1,0.6c0,0.3-0.2,0.4-0.6,0.4h-3.6c-0.4,0-1,1-2,2.9c-1,2-1.5,3.2-1.5,3.6c0,0.6,0.3,1.2,0.8,1.8
			c0.5,0.5,1.2,0.8,2.1,0.8c0.9,0,2.6-0.6,5.1-1.9V86.9z M248.1,79.3v-0.5c-0.3,0.3-0.5,0.8-0.8,1.6c-0.1,0.4-0.2,0.8-0.3,1.3
			C247.1,80.9,247.5,80.1,248.1,79.3z M248.9,77.1v-0.5c-0.3,0.6-0.4,1.1-0.4,1.4C248.7,77.5,248.9,77.2,248.9,77.1z"/>
		<path d="M263.2,86.9c-0.3,0.3-0.9,0.7-2,1.2c-1,0.4-1.9,0.7-2.5,0.7c-0.6,0-1.2-0.2-1.7-0.6c-0.7-0.5-1.1-1.3-1.1-2.4
			c-0.4-0.1-0.7,0-0.9,0.2c-0.1,0-0.3,0.3-0.8,0.7h-0.5v-0.9c1.6-1.6,2.8-3,3.5-4c0.3-0.4,0.6-0.9,0.8-1.5c0.1-0.1,0.2-0.2,0.5-0.2
			c0.7,0.2,1,0.4,1,0.6c-1.6,2.7-2.4,4.5-2.4,5.4c0,0.4,0.2,0.8,0.7,1.1c0.4,0.3,0.9,0.5,1.5,0.5c0.8,0,1.6-0.2,2.3-0.7
			c0.7-0.4,1.2-0.7,1.6-0.7V86.9z M262,74.3c0,0.7-0.6,1-1.8,1h-1.2v-0.3c0.1-0.3,0.4-0.7,0.8-1c0.4-0.3,0.8-0.5,1.2-0.5
			c0.1,0,0.3,0.1,0.6,0.2C261.8,74,262,74.2,262,74.3z"/>
		<path d="M278.8,86.9c0,0.3-0.3,0.5-0.9,0.7s-1.2,0.3-1.9,0.3c-1,0-1.9-0.2-2.6-0.5c-0.7-0.3-1.1-0.5-1.2-0.5
			c-1.5,1.5-2.8,2.2-4,2.2c-1.2,0-2.1-0.5-2.6-1.4c-0.3-0.6-0.5-1.2-0.8-1.9c-0.3,0.2-0.8,0.5-1.6,0.8v-1.1c1-0.6,1.8-1.3,2.3-2.1
			c0.3-0.6,0.6-1.2,1-1.8h0.7v0.8c-0.5,1.1-0.7,2.2-0.7,3.2c0,1.3,0.7,2,2.1,2c0.6,0,1.2-0.2,1.9-0.5c0.6-0.3,1-0.7,1-0.9
			c-0.3-0.6-0.5-1.2-0.5-1.8c0-1.1,0.4-1.7,1.1-1.7c0.6,0,1,0.5,1,1.4c0,0.3-0.1,0.6-0.3,1s-0.3,0.7-0.3,0.7
			c0.6,0.8,1.8,1.1,3.5,1.1c0.4,0,0.9-0.1,1.4-0.3c0.6-0.2,1.1-0.4,1.3-0.4V86.9z"/>
		<path d="M289.9,86.9c-0.3,0.3-1.2,0.7-2.6,1.2c-1.4,0.5-2.4,0.7-3,0.7h-2c-0.7,0-1.3-0.3-2-1c-0.6-0.7-1.3-1-1.9-1
			c0.2-0.8,0.3-1.3,0.3-1.7c0-0.2-0.1-0.4-0.2-0.5c-0.1-0.1-0.2-0.2-0.2-0.2c0-0.8,0.3-1.8,1-2.9c0.8-1.3,1.7-2,2.6-2
			c0.5,0,1,0.3,1.3,0.8c0.3,0.4,0.4,0.8,0.4,1.2c0,0.9-0.5,1.9-1.5,2.9c-1,1-1.5,1.6-1.5,1.6c0,0.6,1.1,1,3.3,1.3
			c0.9,0,1.9-0.2,3.1-0.5c1.4-0.4,2.3-0.7,2.6-0.7V86.9z M282.5,81.7c0-0.1-0.1-0.3-0.2-0.5c-0.1-0.2-0.2-0.3-0.3-0.3
			c-1,0-1.4,1-1.4,2.9c0,0,0,0.1-0.1,0.2c-0.1,0.1-0.1,0.2-0.1,0.4c0,0.2,0.2,0.4,0.5,0.6C281.9,83.3,282.5,82.2,282.5,81.7z"/>
		<path d="M325.5,86.7c0,0.3-0.4,0.7-1.2,1.1c-1,0.6-2.2,1-3.6,1h-1.3c-0.9,0-1.6-0.4-2.1-1.2c-0.2-0.4-0.4-1.1-0.7-2.3
			c-0.7,0.6-1.5,1.2-2.2,1.8c-1.5,1.2-2.9,1.8-4.4,1.8h-2c-0.4,0-1-0.4-1.7-1.2c-0.6-0.7-1-1.1-1-1.3c0.4-1.3,1-2.4,1.8-3.3
			c1.9-2.2,4.8-3.3,8.5-3.3h3v0.9c-0.6,1.3-0.8,2.4-0.8,3c0,1,0.3,1.8,0.9,2.4c0.6,0.6,1.3,1,2,0.9c0.3,0,0.9,0,1.8,0
			c0.6-0.1,1.4-0.4,2.6-0.9h0.4V86.7z M316.7,81.8v-0.5c-0.2,0.1-0.6,0.1-1.2,0.1c-0.9-0.1-1.5-0.1-1.8-0.1c-1.6,0.1-3.1,0.7-4.5,2
			c-1.1,1-1.7,1.7-1.7,2.1c0,0.4,0.2,0.9,0.6,1.3c0.4,0.4,0.8,0.6,1.1,0.6h1.5c1.5,0,2.9-0.8,4.1-2.5
			C315.5,83.9,316.1,82.9,316.7,81.8z"/>
		<path d="M334.6,86.9c-0.4,0.3-1.1,0.7-2.3,1.2c-1.2,0.5-1.9,0.8-2.2,0.8h-1.7c-0.8,0-1.4-0.3-1.8-0.8c-0.4-0.5-0.7-1.1-1.1-1.6
			c-0.2,0.1-0.4,0.1-0.7,0v-0.7c0.4-0.3,0.7-1.2,1.1-2.8c0.4-1.8,0.9-2.9,1.2-3.5V79h-0.4c-0.3,0.1-0.9,0.2-2,0.5v-0.7
			c1.2-0.4,2.1-0.6,2.7-0.6c0.3-0.7,0.7-1.5,1.1-2.2c0.7-1.4,1.4-2.3,1.9-2.6V75c-0.1,0.5-0.2,1.2-0.4,2V78h2.2
			c1.4,0,2.1,0.2,2.1,0.6c0,0.3-0.2,0.4-0.6,0.4h-3.6c-0.4,0-1,1-2,2.9c-1,2-1.5,3.2-1.5,3.6c0,0.6,0.3,1.2,0.8,1.8
			c0.5,0.5,1.2,0.8,2.1,0.8c0.9,0,2.6-0.6,5.1-1.9V86.9z M328.5,79.3v-0.5c-0.3,0.3-0.5,0.8-0.8,1.6c-0.1,0.4-0.2,0.8-0.3,1.3
			C327.6,80.9,327.9,80.1,328.5,79.3z M329.3,77.1v-0.5c-0.3,0.6-0.4,1.1-0.4,1.4C329.1,77.5,329.3,77.2,329.3,77.1z"/>
		<path d="M360.7,86.7c0,0.4-0.7,0.8-2.2,1.3c-1.3,0.5-2.3,0.7-2.7,0.7c-0.7,0-1.3-0.2-1.9-0.6c-0.8-0.5-1.2-1.4-1.2-2.5
			c0-0.5,0.1-1,0.3-1.5c0.2-0.5,0.3-0.8,0.3-0.9c0-0.2-0.1-0.3-0.2-0.5l-9.6,6.2c0-0.3,0.3-1.2,0.9-2.7c0.6-1.5,0.9-2.5,0.9-3
			c-0.2-0.5-0.5-0.8-0.8-0.8c-0.9,0-3.3,2-7.4,6h-1V88c0.4-0.6,0.7-1.7,1-3.3c-0.3,0.1-0.6,0.4-1,0.9c-0.4,0.5-0.9,0.8-1.4,0.9v-0.6
			l3.7-4.6c0.3,0.1,0.4,0.2,0.4,0.5c0,0.1-0.1,0.7-0.4,1.8c-0.3,1.1-0.4,1.7-0.5,2.1V86c0.4,0,1.6-0.9,3.5-2.6
			c1.9-1.7,3.2-2.6,4.1-2.6c0.4,0,0.8,0.1,1.1,0.4c0.3,0.3,0.5,0.7,0.5,1.1c0,0.2-0.1,0.7-0.4,1.4c-0.3,0.7-0.4,1.2-0.4,1.6
			c0,0.2,0,0.3,0.1,0.5l8.6-5.2c0.5,0.2,0.8,0.5,0.8,0.9c-1,1.1-1.6,2.2-1.6,3.2c0,0.8,0.3,1.5,0.9,2c0.5,0.4,1.1,0.6,1.8,0.6
			c0.9,0,2-0.3,3.4-1C360.5,86.2,360.7,86.4,360.7,86.7z"/>
		<path d="M373.3,86c0.1,0.1,0.1,0.2,0.1,0.3c0,0.4-0.5,0.5-1.5,0.5h-1.4c-0.6,0-1.2-0.1-1.8-0.4c-0.7-0.3-1.1-0.5-1.1-0.5
			c-1.3,2-2.6,2.9-4,2.9h-1.3c-1.4-0.2-2.1-1.1-2.1-2.7c0-2.4,1.8-3.7,5.3-3.9c0.6-0.6,1-0.9,1.3-0.9c0.1,0,0.3,0.2,0.6,0.5
			c0.3,0.4,0.5,0.8,0.5,1.2c0,0.5-0.1,1-0.3,1.7c0,0.4,0.4,0.7,1.3,1c0.8,0.3,1.5,0.4,2.2,0.4C370.9,86.2,371.7,86.1,373.3,86z
			 M366.8,85.4c-0.4-0.3-0.7-0.8-1-1.5c-0.3-0.5-0.5-0.8-0.8-0.8c-1,0-1.8,0.4-2.5,1c-0.6,0.6-0.8,1.2-0.8,1.8
			c0,0.5,0.2,0.9,0.6,1.3c0.4,0.4,0.8,0.6,1.1,0.6c0.7,0,1.4-0.3,2.1-0.9C366.1,86.5,366.5,86,366.8,85.4z M367.1,82.8
			c-0.1-0.1-0.3-0.2-0.6-0.5v0.5C366.7,82.7,367,82.7,367.1,82.8z M367.2,84.4v-1.2c-0.1,0.1-0.2,0.2-0.4,0.5
			C366.8,83.7,366.9,84,367.2,84.4z"/>
		<path d="M387.4,87.3c-1.5,1-3,1.5-4.6,1.6c-1.3,0.1-2.5,0.1-3.4,0c-3,0-4.5-0.6-4.5-1.8c0-0.3,0.3-0.5,0.8-0.5
			c0.1,0,0.6,0.3,1.3,0.8c0.7,0.5,1.5,0.8,2.2,0.8c1.3,0,2-0.5,2-1.6c0-0.6-0.6-1.3-1.8-2.1c-1.3-0.9-2.4-1.3-3.4-1.3
			c-0.1,0-0.4,0.4-0.9,1c-0.8,1.3-1.4,2.1-1.8,2.6H373v-0.9c0.8-0.8,1.3-1.6,1.7-2.4c0.1-0.4,0.2-0.8,0.4-1.3
			c0.1-0.3,0.3-0.4,0.7-0.4c4.6,1.4,6.9,3,6.9,4.7c0,0.1-0.1,0.4-0.3,0.9V88h0.6c1.3-0.4,2.4-0.8,3.1-1.2c0.6-0.3,1-0.5,1.2-0.5
			V87.3z"/>
		<path d="M403.9,86.8c-0.4,0.4-1.1,0.7-2.1,1.2c-0.9,0.4-1.6,0.6-1.9,0.6h-2.4c-0.3,0-0.7-0.1-1-0.4s-0.7-0.4-1-0.4
			c-0.2,0-0.4,0.1-0.7,0.3c-0.3,0.2-0.5,0.4-0.7,0.4c-1,0.2-1.9,0.4-2.9,0.7c-0.3,0.1-0.5,0.5-0.5,1c-0.1,1.2-0.4,2.5-0.8,3.7
			c-0.8,2.6-1.4,5.1-1.8,7.6c-0.2,1.1-0.5,1.6-0.8,1.6c-0.3,0-0.5-0.2-0.6-0.5c-0.1-0.3-0.2-0.7-0.3-1l5-19.7h-0.3l-3.7,4.6H387
			v-0.9l3.8-4.6v-0.2h-0.6c-0.7,0.2-1.3,0.7-2,1.3c-0.7,0.7-1.1,1.1-1.3,1.2v-0.6c0.6-1.1,1.4-1.9,2.2-2.4c0.4-0.2,1-0.4,1.9-0.7
			c0.6-0.1,1-0.4,1.2-0.7c0.5-1.8,1.1-3.8,1.9-6.1h0.5v0.9c-0.3,0.7-0.6,1.6-0.9,2.8c-0.2,1.2-0.5,2-0.7,2.4v0.7
			c1.2,0,2.2,0.4,3.1,1.2s1.3,1.7,1.3,2.8c0,0.7-0.3,1.8-1,3.1c0,0.4,0.3,0.6,1,0.6h2.4c0.4,0,1.1-0.2,2-0.6c0.9-0.4,1.5-0.6,2-0.6
			V86.8z M393.8,87.4c-0.7-0.3-1.1-0.5-1.4-0.5c-0.4,0-0.7,0.2-0.9,0.5c0.6,0.1,0.9,0.2,1,0.2C392.7,87.6,393.1,87.6,393.8,87.4z
			 M395.8,85.5v-2c0-0.2-0.3-0.6-0.8-1.3c-0.6-0.8-1.2-1.3-1.7-1.3c-0.4,0-0.9,1.4-1.4,4.3c0,0.3,1,0.7,2.9,1.2
			C395.5,86.4,395.8,86.1,395.8,85.5z"/>
		<path d="M425.3,86.9c-0.2,0.2-0.8,0.5-1.9,0.8c-1.2,0.4-2.1,0.6-2.7,0.6h-1.9c-0.8,0-1.5-0.4-2.3-1.3s-1.2-1.7-1.2-2.5
			c0-0.1,0-0.4,0.1-0.9c0.1-0.5,0.1-0.9,0.2-1.3c-0.4,0-1.1,0.1-2,0.4c-1.3,0.5-2.6,1-4,1.4c-1.1,0.4-1.9,1-2.3,1.8
			c-0.2,0.3-0.3,1-0.5,1.9c-0.1,0.6-0.4,0.9-0.8,0.9h-0.9v-1.2c0.5-1,0.8-1.6,0.8-1.8c0-0.1,0-0.1-0.1-0.1c-0.1,0-0.2-0.1-0.2-0.2
			c-0.2,0.2-0.8,0.5-1.6,0.9v-0.7c0.4-0.6,0.8-1,1.3-1.3c0.4-0.2,0.8-0.8,1.3-1.7c0.7-1.4,1.7-4.1,3.2-8c0.6-1.7,1.6-3.6,2.7-5.8
			c1.8-3.2,3.3-4.8,4.5-4.8c0.5,0,0.9,0.2,1.2,0.5c0.3,0.4,0.5,0.7,0.5,1v1.6c0,2.6-1.6,6-4.9,10.1c-1.8,2-3.6,4-5.3,6h0.7l9-3.2
			c0.2,0.1,0.3,0.1,0.5,0.2s0.3,0.2,0.3,0.4c-1.2,1.7-1.8,3.1-1.8,4.1c0,0.8,0.3,1.4,1,1.8c0.6,0.4,1.3,0.6,2.1,0.6
			c0.9,0,1.9-0.2,3.1-0.5c1.3-0.4,2-0.6,2.1-0.6V86.9z M417.2,66.7c0-0.7-0.2-1.1-0.7-1.1c-0.9,0-2,1.5-3.4,4.4
			c-1.2,2.5-1.9,4-2.1,4.5c-0.8,1.8-1.4,3.9-1.9,6.1c1.3-0.8,3-2.8,4.9-5.8C416.1,71.6,417.2,68.8,417.2,66.7z"/>
		<path d="M436.5,86.9c-0.3,0.3-1.2,0.7-2.6,1.2c-1.4,0.5-2.4,0.7-3,0.7h-2c-0.7,0-1.3-0.3-2-1c-0.6-0.7-1.3-1-1.9-1
			c0.2-0.8,0.3-1.3,0.3-1.7c0-0.2-0.1-0.4-0.2-0.5c-0.1-0.1-0.2-0.2-0.2-0.2c0-0.8,0.3-1.8,1-2.9c0.8-1.3,1.7-2,2.6-2
			c0.5,0,1,0.3,1.3,0.8c0.3,0.4,0.4,0.8,0.4,1.2c0,0.9-0.5,1.9-1.5,2.9c-1,1-1.5,1.6-1.5,1.6c0,0.6,1.1,1,3.3,1.3
			c0.9,0,1.9-0.2,3.1-0.5c1.4-0.4,2.3-0.7,2.6-0.7V86.9z M429.1,81.7c0-0.1-0.1-0.3-0.2-0.5c-0.1-0.2-0.2-0.3-0.3-0.3
			c-1,0-1.4,1-1.4,2.9c0,0,0,0.1-0.1,0.2c-0.1,0.1-0.1,0.2-0.1,0.4c0,0.2,0.2,0.4,0.5,0.6C428.5,83.3,429.1,82.2,429.1,81.7z"/>
		<path d="M449.9,86.8c-0.6,0.6-1.5,1-2.7,1.5c-1.2,0.4-2.3,0.6-3.1,0.6c-0.6,0-1.1-0.2-1.7-0.5c-0.6-0.3-0.9-0.7-0.9-1.2V86
			c0-0.1,0.2-0.5,0.5-1.1c0.3-0.6,0.5-1,0.6-1h-3.4c-0.4,0-0.8,0.4-1.4,1.3c-0.6,1-1,1.6-1.3,1.7c-0.1,0-0.2-0.3-0.4-0.8l2.9-4.2
			c0.3,0.3,0.6,0.6,0.8,0.9c0.2,0.2,0.6,0.3,1.2,0.3c0.8,0,1.8-0.5,2.9-1.4h0.4v0.7c-1.1,1.7-1.6,2.9-1.6,3.6c0,0.5,0.2,0.9,0.5,1.2
			c0.3,0.4,0.6,0.5,0.9,0.5h2c0.3,0,0.7-0.1,1-0.2c0.8-0.2,1.6-0.6,2.2-1.2h0.5V86.8z"/>
		<path d="M460.5,86.9c-0.3,0.3-1.2,0.7-2.6,1.2c-1.4,0.5-2.4,0.7-3,0.7h-2c-0.7,0-1.3-0.3-2-1c-0.6-0.7-1.3-1-1.9-1
			c0.2-0.8,0.3-1.3,0.3-1.7c0-0.2-0.1-0.4-0.2-0.5c-0.1-0.1-0.2-0.2-0.2-0.2c0-0.8,0.3-1.8,1-2.9c0.8-1.3,1.7-2,2.6-2
			c0.5,0,1,0.3,1.3,0.8c0.3,0.4,0.4,0.8,0.4,1.2c0,0.9-0.5,1.9-1.5,2.9c-1,1-1.5,1.6-1.5,1.6c0,0.6,1.1,1,3.3,1.3
			c0.9,0,1.9-0.2,3.1-0.5c1.4-0.4,2.3-0.7,2.6-0.7V86.9z M453.1,81.7c0-0.1-0.1-0.3-0.2-0.5c-0.1-0.2-0.2-0.3-0.3-0.3
			c-1,0-1.4,1-1.4,2.9c0,0,0,0.1-0.1,0.2c-0.1,0.1-0.1,0.2-0.1,0.4c0,0.2,0.2,0.4,0.5,0.6C452.5,83.3,453.1,82.2,453.1,81.7z"/>
		<path d="M494.8,86.8c0,0.4-0.5,0.8-1.4,1.2c-0.9,0.5-1.8,0.7-2.6,0.7h-1.5c-0.9,0-1.6-0.3-2.2-1c-0.4-0.4-0.7-1.1-1.1-1.9
			c-0.3-0.7-0.5-1-0.6-1c-0.1,0-0.5,0.3-1.2,1c-0.9,0.8-1.6,1.4-2.3,1.8c-1.1,0.7-2.1,1-3.1,1c-2,0-3-0.9-3-2.6
			c0-1.3,0.7-2.5,2.2-3.9s3.1-2,4.8-2c0.4,0,0.8,0.1,1.2,0.4s0.7,0.6,0.7,1c0,0.5-1.1,1.3-3.4,2.5c-2.5,1.3-3.8,2.1-3.9,2.2
			c0.4,0.6,1.1,0.9,2,0.9c3,0,5.6-2.9,7.8-8.6c1.8-4.8,3-7.7,3.7-8.9c0.6-1.1,1.1-1.6,1.8-1.6c0.3,0,0.5,0.2,0.5,0.7
			c0,0.9-1,3.6-3.1,7.9c-2.1,4.4-3.2,6.5-3.2,6.5c0,0.8,0.4,1.7,1.1,2.4c0.9,1,2.1,1.5,3.6,1.5c0.3,0,0.9-0.1,1.6-0.3
			c1-0.4,1.6-0.6,1.8-0.6V86.8z M482.9,81.5c-1.8,0.4-2.7,0.7-2.9,0.9c-0.8,0.7-1.5,1.4-2.3,2.1c0.6,0.2,1.7-0.2,3.1-1.2
			C482.1,82.4,482.8,81.8,482.9,81.5z"/>
		<path d="M505.8,86.9c-0.3,0.3-1.2,0.7-2.6,1.2c-1.4,0.5-2.4,0.7-3,0.7h-2c-0.7,0-1.3-0.3-2-1c-0.6-0.7-1.3-1-1.9-1
			c0.2-0.8,0.3-1.3,0.3-1.7c0-0.2-0.1-0.4-0.2-0.5c-0.1-0.1-0.2-0.2-0.2-0.2c0-0.8,0.3-1.8,1-2.9c0.8-1.3,1.7-2,2.6-2
			c0.5,0,1,0.3,1.3,0.8c0.3,0.4,0.4,0.8,0.4,1.2c0,0.9-0.5,1.9-1.5,2.9c-1,1-1.5,1.6-1.5,1.6c0,0.6,1.1,1,3.3,1.3
			c0.9,0,1.9-0.2,3.1-0.5c1.4-0.4,2.3-0.7,2.6-0.7V86.9z M498.5,81.7c0-0.1-0.1-0.3-0.2-0.5c-0.1-0.2-0.2-0.3-0.3-0.3
			c-1,0-1.4,1-1.4,2.9c0,0,0,0.1-0.1,0.2c-0.1,0.1-0.1,0.2-0.1,0.4c0,0.2,0.2,0.4,0.5,0.6C497.9,83.3,498.5,82.2,498.5,81.7z"/>
		<path d="M519.8,87.3c-1.5,1-3,1.5-4.6,1.6c-1.3,0.1-2.5,0.1-3.4,0c-3,0-4.5-0.6-4.5-1.8c0-0.3,0.3-0.5,0.8-0.5
			c0.1,0,0.6,0.3,1.3,0.8c0.7,0.5,1.5,0.8,2.2,0.8c1.3,0,2-0.5,2-1.6c0-0.6-0.6-1.3-1.8-2.1c-1.3-0.9-2.4-1.3-3.4-1.3
			c-0.1,0-0.4,0.4-0.9,1c-0.8,1.3-1.4,2.1-1.8,2.6h-0.3v-0.9c0.8-0.8,1.3-1.6,1.7-2.4c0.1-0.4,0.2-0.8,0.4-1.3
			c0.1-0.3,0.3-0.4,0.7-0.4c4.6,1.4,6.9,3,6.9,4.7c0,0.1-0.1,0.4-0.3,0.9V88h0.6c1.3-0.4,2.4-0.8,3.1-1.2c0.6-0.3,1-0.5,1.2-0.5
			V87.3z"/>
		<path d="M528.9,86.9c-0.3,0.3-0.9,0.7-2,1.2c-1,0.4-1.9,0.7-2.5,0.7c-0.6,0-1.2-0.2-1.7-0.6c-0.7-0.5-1.1-1.3-1.1-2.4
			c-0.4-0.1-0.7,0-0.9,0.2c-0.1,0-0.3,0.3-0.8,0.7h-0.5v-0.9c1.6-1.6,2.8-3,3.5-4c0.3-0.4,0.6-0.9,0.8-1.5c0.1-0.1,0.2-0.2,0.5-0.2
			c0.7,0.2,1,0.4,1,0.6c-1.6,2.7-2.4,4.5-2.4,5.4c0,0.4,0.2,0.8,0.7,1.1c0.4,0.3,0.9,0.5,1.5,0.5c0.8,0,1.6-0.2,2.3-0.7
			c0.7-0.4,1.2-0.7,1.6-0.7V86.9z M527.6,74.3c0,0.7-0.6,1-1.8,1h-1.2v-0.3c0.1-0.3,0.4-0.7,0.8-1c0.4-0.3,0.8-0.5,1.2-0.5
			c0.1,0,0.3,0.1,0.6,0.2C527.4,74,527.6,74.2,527.6,74.3z"/>
		<path d="M546.1,86.7c0,0.4-1.3,1.2-3.8,2.6c-2.6,1.5-4,2.3-4.1,2.4c-0.1,0.6-0.4,1.4-0.7,2.5c-0.8,2.3-1.8,4.4-3,6.2
			c-1.4,2.2-2.6,3.4-3.7,3.4c-0.3,0-0.6-0.2-1-0.5c-0.4-0.4-0.7-0.9-0.7-1.5c0-1.7,0.8-3.6,2.3-5.5c1.4-1.6,2.9-3.1,4.3-4.7
			c1.5-1.7,2.3-3.1,2.3-4.1c0-0.4-0.1-0.8-0.3-1.1c-0.8,0.6-1.5,1.1-2.3,1.6c-1,0.7-2.1,1-3.1,1c-0.9,0-1.8-0.3-2.5-0.9
			c-0.8-0.6-1.2-1.2-1.2-1.8v-1.3c0-0.7,0.4-1.5,1.3-2.6c1.4-1.7,3.5-2.5,6.2-2.5c0.5,0,1.1,0.1,1.8,0.3c0.7,0.2,1.1,0.3,1.3,0.3
			c0.4,0,0.6-0.4,0.6-1.2h0.8v1.3c0,0.3,0.2,0.5,0.7,0.8c0.5,0.3,0.7,0.7,0.8,1.3h-0.9c-0.3-0.3-0.5-0.5-0.9-0.5H540l-1.6,7.7h0.6
			l6.6-3.7h0.5V86.7z M539.1,82c0-0.2-0.2-0.4-0.6-0.6c-0.3-0.1-0.6-0.2-0.8-0.2h-2.2c-1.4,0-2.6,0.4-3.6,1.3
			c-1,0.8-1.5,1.7-1.5,2.6c0,0.7,0.2,1.3,0.7,1.7c0.5,0.4,1.1,0.7,1.8,0.7c1.3,0,2.7-0.7,4.2-2.1C538.4,84,539.1,82.9,539.1,82z
			 M536.2,93.6v-0.5c-1.3,0.6-2.6,1.8-3.9,3.7c-1.3,1.8-1.9,3.2-1.9,4.2c0,0.8,0.2,1.2,0.8,1.2c0.7,0,1.4-0.6,2.2-1.9
			c0.4-0.8,1-2.1,1.6-3.8C535.5,94.9,535.9,93.9,536.2,93.6z"/>
		<path d="M563.5,86.7c-0.8,0.6-2.3,1.1-4.4,1.6h-1.9c-0.5,0-1-0.2-1.6-0.7c-0.5-0.5-0.8-1-0.8-1.7c0-0.4,0.1-0.8,0.3-1.3
			c0.2-0.4,0.3-0.7,0.3-0.8c0-0.2,0-0.3-0.1-0.5l-8.1,5.5h-0.4V88c0.5-0.9,0.7-1.6,0.7-2.1c0-0.3-0.1-0.5-0.2-0.7
			c-0.5,0.2-0.8,0.4-1,0.7c-0.2,0.3-0.5,0.5-0.8,0.7v-0.8c1.5-1.1,2.4-2.2,2.9-3.1c0.6-1.2,1-1.8,1-1.9h0.7v0.9
			c-0.3,0.6-0.6,1.3-0.8,2.2c-0.3,1.1-0.5,1.8-0.5,2v0.5c1.4-0.2,4.5-2.2,9.3-6.1c0.1,0,0.3,0.1,0.5,0.3c0.2,0.2,0.3,0.3,0.3,0.5
			c0-0.1-0.4,0.3-1.2,1.2s-1.2,2-1.2,3c0,0.6,0.2,1,0.6,1.4c0.4,0.4,0.8,0.6,1.4,0.6h1.2c0.7,0,1.8-0.3,3.2-1h0.8V86.7z"/>
	</g>
</g>
<g>
</g>
<g>
</g>
<g>
</g>
<g>
</g>
<g>
</g>
<g>
</g>
<g>
</g>
<g>
</g>
<g>
</g>
<g>
</g>
<g>
</g>
<g>
</g>
<g>
</g>
<g>
</g>
<g>
</g>
<g>
</g>
<g>
</g>
<g>
</g>
</svg>
